<svg width="14" height="17" viewBox="0 0 14 17" fill="none" xmlns="http://www.w3.org/2000/svg">
	<path fill-rule="evenodd" clip-rule="evenodd" d="M9 4C9 2.897 8.103 2 7 2C5.897 2 5 2.897 5 4C5 5.103 5.897 6 7 6C8.103 6 9 5.103 9 4ZM11 4C11 6.206 9.206 8 7 8C4.794 8 3 6.206 3 4C3 1.794 4.794 0 7 0C9.206 0 11 1.794 11 4ZM0 16C0 12.14 3.141 9 7 9C10.859 9 14 12.14 14 16C14 16.552 13.553 17 13 17C12.447 17 12 16.552 12 16C12 13.243 9.757 11 7 11C4.243 11 2 13.243 2 16C2 16.552 1.553 17 1 17C0.447 17 0 16.552 0 16Z" fill="#191919" />
</svg>
