<svg width="24" height="24" viewBox="0 0 24 24" fill="none" xmlns="http://www.w3.org/2000/svg">
<path d="M17.9991 0.0049936L14.8868 0C11.3904 0 9.13078 2.31828 9.13078 5.90643V8.62969H6.00158C5.73117 8.62969 5.51221 8.84891 5.51221 9.11932V13.065C5.51221 13.3354 5.73142 13.5544 6.00158 13.5544H9.13078V23.5106C9.13078 23.781 9.34975 24 9.62015 24H13.7029C13.9733 24 14.1922 23.7808 14.1922 23.5106V13.5544H17.851C18.1214 13.5544 18.3404 13.3354 18.3404 13.065L18.3419 9.11932C18.3419 8.98948 18.2902 8.86514 18.1986 8.77326C18.1069 8.68138 17.9821 8.62969 17.8523 8.62969H14.1922V6.32115C14.1922 5.21157 14.4567 4.64829 15.902 4.64829L17.9986 4.64755C18.2687 4.64755 18.4877 4.42833 18.4877 4.15817V0.494367C18.4877 0.224462 18.269 0.00549296 17.9991 0.0049936Z" fill="#191919"/>
</svg>
